<svg width="100" height="100" viewBox="0 0 100 100" fill="none" xmlns="http://www.w3.org/2000/svg">
<g clip-path="url(#clip0_21_7130)">
<rect width="100" height="100" rx="50" fill="white"/>
<circle cx="50" cy="50" r="50" fill="#FFC9BB"/>
<path d="M88.228 69.4891C91.668 61.0891 86.078 60.2291 80.258 55.8891C74.438 51.5491 83.918 49.6891 85.858 45.2291C87.798 40.7691 84.348 37.6291 80.048 35.2591C75.738 32.8891 69.478 23.6691 69.478 23.6691L69.198 23.5391C72.448 30.0591 72.308 37.5091 72.258 38.6191C73.298 38.6791 75.238 39.1091 75.478 41.5691C75.798 44.9391 74.668 47.5291 72.568 48.6491C72.568 48.6491 72.168 48.8291 71.318 48.9991C68.708 59.6391 60.938 67.3691 51.748 67.3691C42.558 67.3691 34.778 59.6391 32.178 48.9791V49.0491C31.148 48.8691 30.698 48.6491 30.698 48.6491C28.598 47.5291 27.468 44.9391 27.788 41.5691C28.038 38.9091 30.298 38.6191 31.238 38.6091C31.218 37.9891 31.168 35.4791 31.648 32.2791C30.058 33.0591 25.288 35.6391 25.378 38.6091C25.498 42.1791 26.518 47.0791 21.928 48.4091C17.338 49.7391 17.178 58.2891 19.108 62.6291C21.038 66.9691 22.338 69.6991 16.278 72.3491C10.218 74.9991 16.958 80.0391 16.308 89.7191C15.658 99.3991 24.488 95.1091 42.068 91.8791C59.648 88.6491 72.278 92.9591 81.758 91.8791C91.228 90.7991 90.158 87.7991 86.708 83.3391C83.258 78.8791 84.768 77.8891 88.218 69.4891H88.228Z" fill="#FFF4CB"/>
<path d="M54.6802 16.7498L69.2102 23.5398C66.4802 18.0698 61.3602 13.2498 51.7602 13.3798C36.9802 13.1698 32.8102 24.6998 31.6602 32.2798C31.9802 32.1198 32.1802 32.0298 32.1802 32.0298L54.6802 16.7398V16.7498Z" fill="#C1735C"/>
<path d="M90.1684 87.8008C81.8884 85.0108 61.1984 74.3008 61.1984 74.3008H40.6284C40.6284 74.3008 19.9484 85.0108 11.6584 87.8008C3.37842 90.5908 3.37842 104.731 3.37842 104.731H98.4584C98.4584 104.731 98.4584 90.5908 90.1784 87.8008H90.1684Z" fill="#4598C4"/>
<path d="M59.9287 64.5195H41.7987L40.4487 75.8595L51.1087 98.7095L61.3287 75.2595L59.9287 64.5195Z" fill="#FCE1CE"/>
<path d="M41.8295 64.0801L41.0195 71.0601C41.0195 71.0601 55.0695 72.3501 60.0195 66.1901V65.1401C57.4895 66.5701 54.6995 67.3701 51.7495 67.3701C48.1495 67.3701 44.7695 66.1701 41.8295 64.0801Z" fill="#9C7E77"/>
<path d="M75.4892 41.57C75.2592 39.11 73.3092 38.68 72.2692 38.62C72.3092 37.51 72.4592 30.06 69.2092 23.54L54.6792 16.75L32.1792 32.04C32.1792 32.04 31.9792 32.13 31.6592 32.29C31.1692 35.49 31.2192 38 31.2492 38.62C30.3092 38.62 28.0492 38.92 27.7992 41.58C27.4792 44.95 28.6092 47.54 30.7092 48.66C30.7092 48.66 31.1592 48.88 32.1892 49.06V48.99C33.7692 55.47 37.2692 60.86 41.8392 64.09C44.7792 66.18 48.1592 67.38 51.7592 67.38C54.6992 67.38 57.4992 66.58 60.0292 65.15C65.3992 62.12 69.5592 56.24 71.3292 49.01C72.1892 48.84 72.5792 48.66 72.5792 48.66C74.6792 47.54 75.8092 44.95 75.4892 41.58V41.57Z" fill="#FCE1CE"/>
<path d="M37.6389 35.4405C41.0689 35.2005 43.9889 36.0005 45.4689 36.4505C45.9189 36.5905 46.3889 36.4105 46.5789 36.0605C46.7789 35.6505 46.5289 35.1805 46.0289 35.0205C44.3489 34.5005 41.3089 33.6705 37.9389 34.4605C37.4189 34.5805 36.4889 34.9705 36.7089 35.4005C36.8389 35.5505 37.1889 35.4805 37.6389 35.4505V35.4405Z" fill="#441D39"/>
<path d="M66.0691 35.6098C62.6491 35.2298 59.7091 35.9198 58.2091 36.3198C57.7591 36.4398 57.2891 36.2498 57.1191 35.8798C56.9291 35.4598 57.1991 34.9898 57.7091 34.8598C59.4091 34.3998 62.4791 33.6898 65.8191 34.6098C66.3291 34.7498 67.2491 35.1798 67.0091 35.5998C66.8691 35.7498 66.5291 35.6598 66.0791 35.5998L66.0691 35.6098Z" fill="#441D39"/>
<path d="M61.4478 43.2391C62.1161 43.2391 62.6578 42.2989 62.6578 41.1391C62.6578 39.9793 62.1161 39.0391 61.4478 39.0391C60.7795 39.0391 60.2378 39.9793 60.2378 41.1391C60.2378 42.2989 60.7795 43.2391 61.4478 43.2391Z" fill="#441D39"/>
<path d="M43.2994 42.8094C43.9676 42.8094 44.5094 41.8692 44.5094 40.7094C44.5094 39.5496 43.9676 38.6094 43.2994 38.6094C42.6311 38.6094 42.0894 39.5496 42.0894 40.7094C42.0894 41.8692 42.6311 42.8094 43.2994 42.8094Z" fill="#441D39"/>
<path d="M53.1793 50.5798H51.2693C50.4193 50.5798 49.6693 50.2498 49.2693 49.6998C48.9793 49.3098 48.8993 48.8498 49.0393 48.3998C49.4793 46.9698 49.8493 45.5998 49.8493 45.5898C49.9193 45.3198 50.1893 45.1698 50.4593 45.2398C50.7293 45.3098 50.8893 45.5898 50.8093 45.8498C50.8093 45.8498 50.4393 47.2398 49.9893 48.6898C49.9493 48.8398 49.9693 48.9698 50.0693 49.1098C50.2793 49.3998 50.7493 49.5798 51.2693 49.5798H53.1793C53.4593 49.5798 53.6793 49.7998 53.6793 50.0798C53.6793 50.3598 53.4593 50.5798 53.1793 50.5798V50.5798Z" fill="#9C7E77"/>
<path d="M51.3493 56.87C49.0193 56.87 47.2493 56.55 47.1193 56.52C46.8493 56.47 46.6693 56.21 46.7193 55.94C46.7693 55.67 47.0293 55.49 47.2993 55.54C47.3493 55.54 52.9293 56.57 57.2893 54.94C57.5493 54.84 57.8393 54.97 57.9293 55.23C58.0293 55.49 57.8893 55.78 57.6393 55.87C55.5493 56.65 53.2593 56.87 51.3393 56.87H51.3493Z" fill="#9C7E77"/>
<path d="M62.4485 46.5297C64.376 46.5297 65.9385 46.1715 65.9385 45.7297C65.9385 45.2879 64.376 44.9297 62.4485 44.9297C60.521 44.9297 58.9585 45.2879 58.9585 45.7297C58.9585 46.1715 60.521 46.5297 62.4485 46.5297Z" fill="#FFC9BB"/>
<path d="M42.0872 46.5297C44.0146 46.5297 45.5772 46.1715 45.5772 45.7297C45.5772 45.2879 44.0146 44.9297 42.0872 44.9297C40.1597 44.9297 38.5972 45.2879 38.5972 45.7297C38.5972 46.1715 40.1597 46.5297 42.0872 46.5297Z" fill="#FFC9BB"/>
<path d="M30.5181 32.9397L30.5781 33.4097L27.7381 36.3597L25.5581 42.8097C25.5581 42.8097 28.1081 51.0797 31.7381 56.2097C35.3581 61.3497 33.7081 53.5897 32.1781 48.9697C30.6481 44.3497 33.5081 44.2897 34.1781 41.1397C34.5981 39.1497 33.8581 37.3197 33.2581 36.2497C32.7281 34.4197 33.1981 32.2197 35.7081 31.5397C41.5881 29.9297 37.7381 20.1797 37.7381 20.1797C34.3581 22.3497 31.4181 31.1097 30.5281 32.9297L30.5181 32.9397Z" fill="#FFF4CB"/>
<path d="M75.5377 36.3598L73.4577 36.5198C72.6077 32.1298 70.7377 23.4698 69.0477 22.5698C66.7677 21.3598 64.1777 23.3298 64.1777 23.3298C64.1777 23.3298 65.4777 30.4198 68.3277 32.0198C70.0177 32.9698 70.0077 35.1098 70.0477 36.6898C69.0677 41.7998 66.5277 47.4798 72.2577 52.6098C78.5077 58.1998 79.8577 43.2398 79.8577 43.2398L75.5377 36.3598V36.3598Z" fill="#FFF4CB"/>
<path d="M72.4197 14.9809C69.1897 9.61091 56.7697 6.95092 46.4297 9.06092L45.7397 6.73091C45.6097 6.30091 45.1597 6.05092 44.7197 6.18092C44.2897 6.31092 44.0397 6.76091 44.1697 7.20091L44.8297 9.45092C36.8397 11.5409 28.5197 17.4909 24.8697 24.9709C21.1097 32.6709 30.5897 32.8409 30.5897 32.8409C38.6597 20.6709 69.4797 23.6709 69.4797 23.6709C71.2697 23.2909 75.7397 20.5209 72.4097 14.9909L72.4197 14.9809Z" fill="#FF7C59"/>
<path d="M35.87 82.7599C35.68 82.7599 35.5 82.6599 35.42 82.4799C35.3 82.2299 35.41 81.9299 35.65 81.8099L39.42 79.9999C39.67 79.8799 39.97 79.9899 40.09 80.2399C40.21 80.4899 40.1 80.7899 39.86 80.9099L36.09 82.7199C36.02 82.7499 35.95 82.7699 35.87 82.7699V82.7599Z" fill="#2A5E70"/>
<path d="M37.5883 88.7093C37.3983 88.7093 37.2183 88.6093 37.1383 88.4293C37.0183 88.1793 37.1283 87.8793 37.3683 87.7593L41.1383 85.9493C41.3883 85.8293 41.6883 85.9393 41.8083 86.1793C41.9283 86.4193 41.8183 86.7293 41.5783 86.8493L37.8083 88.6593C37.7383 88.6893 37.6683 88.7093 37.5883 88.7093Z" fill="#2A5E70"/>
<path d="M39.7797 95.7405C39.5897 95.7405 39.4097 95.6405 39.3297 95.4605C39.2097 95.2105 39.3197 94.9106 39.5597 94.7906L43.3297 92.9806C43.5797 92.8606 43.8797 92.9705 43.9997 93.2105C44.1197 93.4605 44.0097 93.7605 43.7697 93.8805L39.9997 95.6906C39.9297 95.7206 39.8597 95.7405 39.7797 95.7405Z" fill="#2A5E70"/>
<path d="M65.2897 82.7601C65.2197 82.7601 65.1397 82.7401 65.0697 82.7101L61.2997 80.9001C61.0497 80.7801 60.9497 80.4801 61.0697 80.2301C61.1897 79.9801 61.4897 79.8701 61.7397 79.9901L65.5097 81.8001C65.7597 81.9201 65.8596 82.2201 65.7396 82.4701C65.6496 82.6501 65.4797 82.7501 65.2897 82.7501V82.7601Z" fill="#2A5E70"/>
<path d="M63.5689 88.7091C63.4989 88.7091 63.4189 88.6891 63.3489 88.6591L59.579 86.8491C59.329 86.7291 59.229 86.4291 59.349 86.1791C59.469 85.9291 59.7689 85.8291 60.0189 85.9491L63.789 87.7591C64.039 87.8791 64.1389 88.1791 64.0189 88.4291C63.9289 88.6091 63.7589 88.7091 63.5689 88.7091Z" fill="#2A5E70"/>
<path d="M61.38 95.7403C61.31 95.7403 61.23 95.7203 61.16 95.6903L57.39 93.8803C57.14 93.7603 57.04 93.4603 57.16 93.2103C57.28 92.9603 57.58 92.8603 57.83 92.9803L61.6 94.7903C61.85 94.9103 61.95 95.2103 61.83 95.4603C61.74 95.6403 61.57 95.7403 61.38 95.7403Z" fill="#2A5E70"/>
</g>
<defs>
<clipPath id="clip0_21_7130">
<rect width="100" height="100" rx="50" fill="white"/>
</clipPath>
</defs>
</svg>
