<svg width="318" height="417" viewBox="0 0 318 417" fill="none" xmlns="http://www.w3.org/2000/svg">
<g clip-path="url(#clip0_20_6015)">
<path d="M58.2197 106.22C64.6397 103.08 71.3397 97.34 80.6597 97.1C90.4397 96.84 96.5697 101.74 96.5697 101.74C97.3197 101.53 103.99 94.43 113.34 90.35C120.73 87.12 130.36 86.51 136.11 87.61C136.7 87.72 137.88 87.34 138.34 87.72C138.78 88.09 140.05 90.8 140.05 90.8C123.29 87.81 108.55 94.8 97.2197 104.8C92.2297 102.57 85.6497 99.51 80.2197 100.13C77.6797 100.42 65.2997 106.09 57.0497 111.46C49.3897 97.14 37.5497 79.14 27.2197 61.8C28.8797 61.11 28.3097 60.07 29.9697 59.38C40.9697 76.96 48.7197 91.05 58.2197 106.21V106.22Z" fill="#FF484C"/>
<path d="M138.52 87.96C124.73 84.37 106.15 91.18 96.5705 101.73C90.4505 96.79 81.6805 95.34 74.2905 98.04C68.5405 100.14 63.6305 103.53 58.2805 106.53C48.6505 90.8 39.3705 75.54 29.7305 59.81C36.0005 51.09 48.7105 48.88 58.6305 51.22C65.0005 52.72 70.8805 55.81 76.4705 59.21C77.3405 56.98 83.4705 48.47 96.9705 45.72C102.88 44.52 109.13 42.45 114.72 44.72C124.4 58.33 129.93 73.64 138.52 87.96Z" stroke="#23295B" stroke-width="1.4" stroke-linecap="round" stroke-linejoin="round"/>
<path d="M135.63 83.07C121.84 79.48 104.55 85.41 94.9704 95.97C88.8504 91.03 78.7904 90.45 71.4004 93.15C65.6504 95.25 60.7404 98.64 55.4004 101.64" stroke="#23295B" stroke-width="1.4" stroke-linecap="round" stroke-linejoin="round"/>
<path d="M76.5801 59.3C83.1101 73.36 88.8101 81.53 95.3501 95.59" stroke="#23295B" stroke-width="1.4" stroke-linecap="round" stroke-linejoin="round"/>
<path d="M29.2102 59.94C28.2602 60.21 27.3802 60.74 26.7002 61.45C31.0502 68.82 35.5302 76.14 40.1602 83.34" stroke="#23295B" stroke-width="1.4" stroke-linecap="round" stroke-linejoin="round"/>
<path d="M45.7197 92.3C47.3597 94.77 48.8697 97.33 50.2197 99.97" stroke="#23295B" stroke-width="1.4" stroke-linecap="round" stroke-linejoin="round"/>
<path d="M137.76 86.29C138.53 88.02 138.94 89.17 139.71 90.9C136.3 90.36 132.84 90.16 129.39 90.29" stroke="#23295B" stroke-width="1.4" stroke-linecap="round" stroke-linejoin="round"/>
<path d="M83.9697 61.72C88.7497 57.29 94.8197 54.27 101.24 53.12" stroke="#23295B" stroke-width="1.4" stroke-linecap="round" stroke-linejoin="round"/>
<path d="M105.47 52.06C106.81 51.98 108.15 51.77 109.46 51.44" stroke="#23295B" stroke-width="1.4" stroke-linecap="round" stroke-linejoin="round"/>
<path d="M87.7197 67.47C95.7697 61.43 105.66 57.87 115.72 57.4" stroke="#23295B" stroke-width="1.4" stroke-linecap="round" stroke-linejoin="round"/>
<path d="M106.99 65.51C109.89 64.26 113.06 63.64 116.22 63.69" stroke="#23295B" stroke-width="1.4" stroke-linecap="round" stroke-linejoin="round"/>
<path d="M94.79 79.08C97.48 77.26 100.4 75.79 103.47 74.72" stroke="#23295B" stroke-width="1.4" stroke-linecap="round" stroke-linejoin="round"/>
<path d="M109.48 72.49C112.75 70.69 116.48 69.71 120.22 69.68" stroke="#23295B" stroke-width="1.4" stroke-linecap="round" stroke-linejoin="round"/>
<path d="M99.0801 85.54C99.8101 85.02 100.55 84.5 101.3 84C108.99 78.85 118 75.69 127.22 74.91" stroke="#23295B" stroke-width="1.4" stroke-linecap="round" stroke-linejoin="round"/>
<path d="M38.4697 62.48C48.6597 56.81 61.9197 57.15 71.8097 63.33" stroke="#23295B" stroke-width="1.4" stroke-linecap="round" stroke-linejoin="round"/>
<path d="M54.2197 66.75C59.9897 65.85 65.9897 66.41 71.4897 68.39" stroke="#23295B" stroke-width="1.4" stroke-linecap="round" stroke-linejoin="round"/>
<path d="M49.6504 78.79C59.3804 75.22 70.0404 74.26 80.2504 76.02" stroke="#23295B" stroke-width="1.4" stroke-linecap="round" stroke-linejoin="round"/>
<path d="M64.4697 87.97C66.9897 86.78 69.6997 86.02 72.4697 85.73" stroke="#23295B" stroke-width="1.4" stroke-linecap="round" stroke-linejoin="round"/>
</g>
<g clip-path="url(#clip1_20_6015)">
<path d="M311.11 133.94C309.48 113.45 306.99 93.89 305.36 73.4C297.38 73.63 289.4 73.85 281.42 74.08C279.55 74.13 277.67 74.19 275.8 74.24C267.58 74.47 261.31 78.26 253.08 78.49C255.81 99.03 258.53 119.58 261.26 140.12C278.15 138.95 294.44 136.9 311.11 133.95V133.94Z" fill="#FF484C"/>
<path d="M251.64 81.29C250.99 80.79 249.94 81.3 249.74 82.1C249.54 82.9 250.03 83.73 250.71 84.17C251.39 84.61 252.23 84.74 253.04 84.81C254.84 84.96 257.05 84.59 257.69 82.91" stroke="#23295B" stroke-width="1.4" stroke-linecap="round" stroke-linejoin="round"/>
<path d="M250.52 87.2C249.79 87.54 249.59 88.56 249.92 89.29C250.25 90.02 250.97 90.51 251.71 90.84C254.1 91.91 257.4 91.42 258.64 89.11" stroke="#23295B" stroke-width="1.4" stroke-linecap="round" stroke-linejoin="round"/>
<path d="M250.27 94.71C249.59 95.11 249.55 96.16 250.02 96.8C250.49 97.44 251.28 97.74 252.05 97.95C253.41 98.32 254.86 98.47 256.24 98.14C257.61 97.81 258.9 96.94 259.51 95.67" stroke="#23295B" stroke-width="1.4" stroke-linecap="round" stroke-linejoin="round"/>
<path d="M251.19 101.89C251.04 102.7 251.53 103.53 252.2 104C252.88 104.47 253.71 104.66 254.52 104.78C255.57 104.94 256.66 105.02 257.7 104.76C258.74 104.5 259.71 103.85 260.15 102.87" stroke="#23295B" stroke-width="1.4" stroke-linecap="round" stroke-linejoin="round"/>
<path d="M251.83 108.92C252.32 110.53 253.99 111.61 255.67 111.7C257.35 111.79 258.99 111.02 260.25 109.9" stroke="#23295B" stroke-width="1.4" stroke-linecap="round" stroke-linejoin="round"/>
<path d="M252.81 117.13C252.62 118.28 253.35 119.44 254.37 120.01C255.39 120.58 256.62 120.64 257.77 120.47C259.3 120.25 260.78 119.64 262.02 118.72" stroke="#23295B" stroke-width="1.4" stroke-linecap="round" stroke-linejoin="round"/>
<path d="M254.09 124.65C254.24 126.22 255.6 127.48 257.11 127.93C258.62 128.38 260.25 128.16 261.79 127.81" stroke="#23295B" stroke-width="1.4" stroke-linecap="round" stroke-linejoin="round"/>
<path d="M255.62 132.17C255.78 133.62 257.4 134.46 258.85 134.61C260.85 134.82 262.93 134.2 264.48 132.91" stroke="#23295B" stroke-width="1.4" stroke-linecap="round" stroke-linejoin="round"/>
<path d="M254.18 74.39C269.65 71.38 285.47 70.14 301.22 70.7" stroke="#23295B" stroke-width="1.4" stroke-linecap="round" stroke-linejoin="round"/>
<path d="M253.97 70.34C258.1 69.91 262.21 69.21 266.25 68.25" stroke="#23295B" stroke-width="1.4" stroke-linecap="round" stroke-linejoin="round"/>
<path d="M279.73 66.7C287.05 67.2 301.99 67.95 309.32 67.49" stroke="#23295B" stroke-width="1.4" stroke-linecap="round" stroke-linejoin="round"/>
<path d="M305.37 73.4C307.14 93.46 308.7 113.95 311.12 133.94" stroke="#23295B" stroke-width="1.4" stroke-linecap="round" stroke-linejoin="round"/>
<path d="M309.81 67.66C313.1 86.37 315.45 110.74 316.84 129.68C316.94 131.05 313.13 134.19 311.12 134.41C295 136.21 278.35 138.97 261.27 140.11" stroke="#23295B" stroke-width="1.4" stroke-linecap="round" stroke-linejoin="round"/>
<path d="M297.98 82.28C286.62 82.55 275.23 84.19 263.96 85.66C263.88 88.69 264.23 91.73 265 94.65C270.01 94.12 274.48 93.87 279.5 93.35" stroke="#23295B" stroke-width="1.4" stroke-linecap="round" stroke-linejoin="round"/>
<path d="M283.49 92.74C288.15 91.85 292.8 90.97 297.46 90.08" stroke="#23295B" stroke-width="1.4" stroke-linecap="round" stroke-linejoin="round"/>
</g>
<g clip-path="url(#clip2_20_6015)">
<path d="M96.42 344.08C98.47 341.73 98.41 338.19 96.37 335.83C89.18 327.5 79.38 320.26 77.08 309.74C75.77 303.77 75.55 298.74 74.63 292.69C70.64 293.1 66.48 293.45 62.48 293.2C62.63 299.86 64.79 305.1 63.57 311.65C61.54 322.61 58.01 333.3 53.12 343.32C51.92 345.79 53.4 348.75 56.12 349.15C61.85 350 67.53 350.15 73.5 349.99C75.79 349.93 78.07 349.8 80.35 349.62C84.21 349.31 88.26 349.21 91.83 347.62C93.38 346.93 95.07 345.63 96.43 344.07L96.42 344.08Z" stroke="#23295B" stroke-width="1.4" stroke-linecap="round" stroke-linejoin="round"/>
<path d="M61.8604 293.64C63.8304 296.1 67.1104 297.45 70.2404 297.1C70.7204 297.05 71.2004 296.95 71.6504 296.76C72.3604 296.45 72.9504 295.9 73.4604 295.31C74.0704 294.62 74.6104 293.87 75.0704 293.07" stroke="#23295B" stroke-width="1.4" stroke-linecap="round" stroke-linejoin="round"/>
<path d="M67.0098 318.7C66.6098 323.07 65.3998 327.37 63.4598 331.32C61.7398 334.83 59.4298 338.12 58.5698 341.93C58.4098 342.66 58.3098 343.45 58.6398 344.12C59.2698 345.4 61.0198 345.51 62.4498 345.44C68.2398 345.16 74.0298 344.87 79.8198 344.59C83.8798 344.39 88.2598 344.08 91.3998 341.5C92.7698 340.37 91.8598 338.19 90.9498 336.66C90.0398 335.13 88.6498 333.97 87.3598 332.74C83.2798 328.85 78.7398 323.88 76.7898 318.59C76.4098 317.55 75.9598 318.31 74.9198 317.97C74.3398 317.78 73.7198 317.9 73.1198 318C70.6398 318.39 69.4598 319.26 67.0098 318.72V318.7Z" fill="#008B86"/>
<path d="M84.6704 339.42C83.8804 339.48 83.0804 338.97 82.8004 338.23C82.5304 337.49 82.8004 336.58 83.4404 336.11C84.0504 335.67 84.5004 335.3 85.1604 335.65C85.8204 336.01 86.2204 336.75 86.2904 337.5C86.3404 337.95 86.2804 338.43 86.0404 338.82C85.8004 339.21 85.1104 339.38 84.6604 339.42H84.6704Z" stroke="#23295B" stroke-width="1.4" stroke-linecap="round" stroke-linejoin="round"/>
<path d="M78.0398 333.39C77.4498 333.57 76.7498 333.56 76.2898 333.16C75.8198 332.76 75.7798 331.89 76.3098 331.58C76.2398 331.22 76.5698 330.88 76.9398 330.83C77.2998 330.78 77.6698 330.95 77.9598 331.17C78.3598 331.48 78.6998 331.92 78.7098 332.43C78.7198 332.94 78.5198 333.25 78.0398 333.39Z" stroke="#23295B" stroke-width="1.4" stroke-linecap="round" stroke-linejoin="round"/>
<path d="M68.6803 340C67.6803 340.29 66.4903 339.69 66.1403 338.7C65.7903 337.71 66.3303 336.5 67.2903 336.1C67.6803 335.94 67.7303 335.51 68.1503 335.55C69.1703 335.65 70.0503 336.55 70.1203 337.57C70.1903 338.59 69.6603 339.71 68.6803 340Z" stroke="#23295B" stroke-width="1.4" stroke-linecap="round" stroke-linejoin="round"/>
<path d="M70.1795 323.3C69.8195 323.81 69.9895 324.64 70.5495 324.92C71.1095 325.21 71.9095 324.83 71.9995 324.2C72.0895 323.58 71.3895 322.97 70.7995 323.2" stroke="#23295B" stroke-width="1.4" stroke-linecap="round" stroke-linejoin="round"/>
</g>
<g clip-path="url(#clip3_20_6015)">
<path d="M281.29 383.38C282.58 384.25 283.8 385.23 284.94 386.29C286.64 385.91 288.58 385.09 290.23 384.51C287.81 382.29 285.5 379.93 283.09 377.71" fill="#8B7BEE"/>
<path d="M261.08 381.74C249.7 368.42 239.03 357.27 227.86 343.77C226.65 342.3 226.73 340.16 228.04 338.79C230.18 336.53 232.43 334 234.44 331.57C235.89 329.82 238.46 329.48 240.29 330.83C253.65 340.7 267.04 350.86 280.21 360.91" fill="#8B7BEE"/>
<path d="M284.031 363.9C282.581 362.54 280.281 360.96 278.351 359.58C275.281 362.03 263.011 375.95 259.511 380.12C260.931 381.89 264.431 385.58 266.681 385.28C267.721 385.14 269.601 382.72 270.541 382.25C274.101 380.5 278.671 381.09 281.681 383.68C283.401 382.32 283.731 381.05 285.451 379.7C283.411 377.73 282.041 375.67 281.401 372.9C280.911 370.77 282.071 369.43 284.101 367.31C285.021 366.35 285.001 364.81 284.031 363.9Z" fill="#23295B"/>
<path d="M257.36 362.97C258.12 363.45 258.92 363.92 259.81 364.01C260.7 364.1 261.71 363.69 262.02 362.85C262.34 361.99 261.86 361.05 261.38 360.27C256.66 352.61 250.22 346.01 242.67 341.1C241.87 340.58 241.03 340.07 240.08 339.93C233.31 338.95 242.31 349.52 243.25 350.65C247.29 355.44 252.06 359.61 257.35 362.97H257.36Z" stroke="#23295B" stroke-width="1.4" stroke-linecap="round" stroke-linejoin="round"/>
<path d="M257.69 376.92C261.64 372.84 265.31 368.49 268.68 363.93" stroke="#23295B" stroke-width="1.4" stroke-linecap="round" stroke-linejoin="round"/>
<path d="M270.32 362.05C271.39 360.88 272.46 359.72 273.53 358.55" stroke="#23295B" stroke-width="1.4" stroke-linecap="round" stroke-linejoin="round"/>
<path d="M229.28 343.39C232.76 339.65 236.24 335.91 239.72 332.18" stroke="#23295B" stroke-width="1.4" stroke-linecap="round" stroke-linejoin="round"/>
</g>
<g clip-path="url(#clip4_20_6015)">
<path d="M303.25 268.03C300.08 254.66 295.11 239.47 293.63 225.81C297.15 224.88 307.68 221.97 308.56 222.22C308.56 222.22 309.26 224.74 309.62 226.58C312.08 239.42 315.03 252.58 316.75 265.53C316.75 265.53 308.57 268.03 303.25 268.03Z" fill="#FFC329"/>
<path d="M293.63 225.81C293.42 224.91 293.23 224 293.06 223.08C292.7 221.16 294 219.34 295.92 218.97C298.45 218.49 300.97 217.85 303.45 217.13C305.2 216.62 307.05 217.51 307.73 219.2L308.57 222.21" fill="#FF484C"/>
<path d="M294.15 227.99C298.9 226.48 303.85 225.62 308.83 225.46" stroke="#23295B" stroke-width="1.4" stroke-linecap="round" stroke-linejoin="round"/>
<path d="M299.38 226.39C302.29 240.05 305.21 253.71 308.12 267.37" stroke="#23295B" stroke-width="1.4" stroke-linecap="round" stroke-linejoin="round"/>
<path d="M302.65 226.74C305.55 240.16 308.46 253.57 311.36 266.99" stroke="#23295B" stroke-width="1.4" stroke-linecap="round" stroke-linejoin="round"/>
<path d="M303.36 268.16C306.54 271.16 309.53 274.36 312.3 277.74C314.45 273.72 315.74 269.25 316.07 264.71" stroke="#23295B" stroke-width="1.4" stroke-linecap="round" stroke-linejoin="round"/>
<path d="M312.83 279.7C312.57 278.48 312.36 279.59 312.11 278.38" stroke="#23295B" stroke-width="1.4" stroke-linecap="round" stroke-linejoin="round"/>
</g>
<g clip-path="url(#clip5_20_6015)">
<path d="M283.47 308.7C285.87 311.63 288.27 314.55 290.66 317.48" stroke="#23295B" stroke-width="1.4" stroke-linecap="round" stroke-linejoin="round"/>
<path d="M280.7 316.78C285.37 314.79 290.05 312.81 294.72 310.82" stroke="#23295B" stroke-width="1.4" stroke-linecap="round" stroke-linejoin="round"/>
</g>
<path d="M43.7935 328.69C42.1835 329.45 40.0835 328.99 38.9335 327.62C37.7835 326.26 37.6835 324.11 38.7035 322.65C40.1235 320.61 41.6435 320.52 43.6035 322.06C45.5535 323.6 46.0435 327.63 43.7935 328.68V328.69Z" stroke="#23295B" stroke-width="1.4" stroke-linecap="round" stroke-linejoin="round"/>
<path d="M16.8403 145.39C15.2303 146.15 13.1303 145.69 11.9803 144.32C10.8303 142.96 10.7303 140.81 11.7503 139.35C13.1703 137.31 14.6903 137.22 16.6503 138.76C18.6003 140.3 19.0903 144.33 16.8403 145.38V145.39Z" stroke="#23295B" stroke-width="1.4" stroke-linecap="round" stroke-linejoin="round"/>
<path d="M182.84 47.39C181.23 48.15 179.13 47.69 177.98 46.32C176.83 44.96 176.73 42.81 177.75 41.35C179.17 39.31 180.69 39.22 182.65 40.76C184.6 42.3 185.09 46.33 182.84 47.38V47.39Z" stroke="#23295B" stroke-width="1.4" stroke-linecap="round" stroke-linejoin="round"/>
<path d="M299.03 47.39C297.42 48.15 295.32 47.69 294.17 46.32C293.02 44.96 292.92 42.81 293.94 41.35C295.36 39.31 296.88 39.22 298.84 40.76C300.79 42.3 301.28 46.33 299.03 47.38V47.39Z" stroke="#23295B" stroke-width="1.4" stroke-linecap="round" stroke-linejoin="round"/>
<path d="M315.793 186.69C314.183 187.45 312.083 186.99 310.933 185.62C309.783 184.26 309.683 182.11 310.703 180.65C312.123 178.61 313.643 178.52 315.603 180.06C317.553 181.6 318.043 185.63 315.793 186.68V186.69Z" stroke="#23295B" stroke-width="1.4" stroke-linecap="round" stroke-linejoin="round"/>
<path d="M212.793 402.69C211.183 403.45 209.083 402.99 207.933 401.62C206.783 400.26 206.683 398.11 207.703 396.65C209.123 394.61 210.643 394.52 212.603 396.06C214.553 397.6 215.043 401.63 212.793 402.68V402.69Z" stroke="#23295B" stroke-width="1.4" stroke-linecap="round" stroke-linejoin="round"/>
<g clip-path="url(#clip6_20_6015)">
<path d="M118.15 20.51C118.31 23.15 118.46 25.8 118.62 28.44C118.67 29.28 118.69 30.21 118.17 30.87C117.28 31.98 115.35 31.52 114.54 30.35C113.73 29.18 113.7 27.67 113.71 26.25L113.75 19.51C113.75 18.27 113.77 17 114.25 15.85C114.73 14.71 115.79 13.71 117.02 13.7C118.11 13.7 119.1 14.45 119.66 15.39C120.22 16.33 120.42 17.43 120.59 18.51C121.43 23.92 121.58 29.43 121.01 34.87" stroke="#23295B" stroke-width="1.4" stroke-linecap="round" stroke-linejoin="round"/>
</g>
<g clip-path="url(#clip7_20_6015)">
<path d="M33.0598 265.218C37.6415 234.342 41.4321 194.777 45.5254 163.827C39.4009 160.395 27.0402 162.184 27.0402 162.184C25.0613 194.332 19.0316 230.895 14.4682 261.019C14.0402 263.821 13.8169 267.168 13.5624 269.988C19.6045 270.763 25.6235 271.698 31.6245 272.784C31.898 269.87 32.6265 268.108 33.0598 265.218Z" fill="#FF8B89"/>
<path d="M14.5495 265.177C16.1303 265.339 17.7147 265.515 19.2954 265.677" stroke="#23295B" stroke-width="1.4" stroke-linecap="round" stroke-linejoin="round"/>
<path d="M14.8643 259.793C16.1629 259.804 17.4566 259.823 18.7552 259.834" stroke="#23295B" stroke-width="1.4" stroke-linecap="round" stroke-linejoin="round"/>
<path d="M16.1062 254.402C18.4787 254.732 20.8513 255.063 23.2189 255.402" stroke="#23295B" stroke-width="1.4" stroke-linecap="round" stroke-linejoin="round"/>
<path d="M17.1915 248.562C18.6183 248.751 20.0588 248.936 21.4856 249.125" stroke="#23295B" stroke-width="1.4" stroke-linecap="round" stroke-linejoin="round"/>
<path d="M17.466 241.446C19.3989 241.638 21.3231 241.826 23.2559 242.018" stroke="#23295B" stroke-width="1.4" stroke-linecap="round" stroke-linejoin="round"/>
<path d="M18.7761 234.558C20.7053 234.737 22.6345 234.915 24.5774 235.09" stroke="#23295B" stroke-width="1.4" stroke-linecap="round" stroke-linejoin="round"/>
<path d="M19.5978 228.335C21.1419 228.361 22.681 228.395 24.2252 228.42" stroke="#23295B" stroke-width="1.4" stroke-linecap="round" stroke-linejoin="round"/>
<path d="M20.5118 220.953C22.6894 220.502 24.977 220.679 27.0536 221.462" stroke="#23295B" stroke-width="1.4" stroke-linecap="round" stroke-linejoin="round"/>
<path d="M22.0133 215.551C23.5051 215.627 24.9919 215.711 26.4751 215.782" stroke="#23295B" stroke-width="1.4" stroke-linecap="round" stroke-linejoin="round"/>
<path d="M22.7031 209.055C25.1966 209.236 27.6681 209.635 30.1003 210.243" stroke="#23295B" stroke-width="1.4" stroke-linecap="round" stroke-linejoin="round"/>
<path d="M23.6904 202.627C25.0206 202.783 26.3594 202.944 27.6896 203.1" stroke="#23295B" stroke-width="1.4" stroke-linecap="round" stroke-linejoin="round"/>
<path d="M23.7885 195.837C26.0459 195.847 28.2992 196.224 30.4518 196.935" stroke="#23295B" stroke-width="1.4" stroke-linecap="round" stroke-linejoin="round"/>
<path d="M25.1016 188.882C26.2829 189.055 27.4692 189.221 28.6505 189.395" stroke="#23295B" stroke-width="1.4" stroke-linecap="round" stroke-linejoin="round"/>
<path d="M26.0445 183.248C28.021 183.385 30.0112 183.518 31.9877 183.654" stroke="#23295B" stroke-width="1.4" stroke-linecap="round" stroke-linejoin="round"/>
<path d="M26.2798 176.86C27.4482 176.877 28.6104 177.143 29.6837 177.625" stroke="#23295B" stroke-width="1.4" stroke-linecap="round" stroke-linejoin="round"/>
<path d="M26.3447 170.709C28.4815 170.788 30.6183 170.866 32.7551 170.945" stroke="#23295B" stroke-width="1.4" stroke-linecap="round" stroke-linejoin="round"/>
<path d="M26.8552 164.525C28.3481 165.179 29.9464 165.571 31.5708 165.677" stroke="#23295B" stroke-width="1.4" stroke-linecap="round" stroke-linejoin="round"/>
</g>
<g clip-path="url(#clip8_20_6015)">
<path d="M79.75 396.78C83.21 392.78 86.2 388.37 88.64 383.67" stroke="#23295B" stroke-width="1.4" stroke-linecap="round" stroke-linejoin="round"/>
<path d="M80.7198 386.78C80.0198 387.6 78.7098 387.81 77.7898 387.26C76.8698 386.71 76.4498 385.45 76.8398 384.45C77.3598 383.17 78.1898 382.34 79.4698 382.86C80.7498 383.38 81.6198 385.74 80.7198 386.79V386.78Z" stroke="#23295B" stroke-width="1.4" stroke-linecap="round" stroke-linejoin="round"/>
<path d="M87.1699 392.54C86.6599 392.72 86.4899 393.36 86.5599 393.9C86.7299 395.21 88.1299 396.26 89.4199 395.96C90.7099 395.66 91.4999 393.98 90.8199 392.84C90.1399 391.7 88.1799 391.67 87.5299 392.82" stroke="#23295B" stroke-width="1.4" stroke-linecap="round" stroke-linejoin="round"/>
</g>
<g clip-path="url(#clip9_20_6015)">
<path d="M272.75 27.78C276.21 23.78 279.2 19.37 281.64 14.67" stroke="#23295B" stroke-width="1.4" stroke-linecap="round" stroke-linejoin="round"/>
<path d="M273.72 17.78C273.02 18.6 271.71 18.81 270.79 18.26C269.87 17.71 269.45 16.45 269.84 15.45C270.36 14.17 271.19 13.34 272.47 13.86C273.75 14.38 274.62 16.74 273.72 17.79V17.78Z" stroke="#23295B" stroke-width="1.4" stroke-linecap="round" stroke-linejoin="round"/>
<path d="M280.17 23.54C279.66 23.72 279.49 24.36 279.56 24.9C279.73 26.21 281.13 27.26 282.42 26.96C283.71 26.66 284.5 24.98 283.82 23.84C283.14 22.7 281.18 22.67 280.53 23.82" stroke="#23295B" stroke-width="1.4" stroke-linecap="round" stroke-linejoin="round"/>
</g>
<g clip-path="url(#clip10_20_6015)">
<path d="M164.779 384.88C166.052 382.943 166.724 380.673 167.183 378.403C167.643 376.161 167.926 373.87 167.693 371.601C167.092 365.583 162.623 360.138 156.846 358.378C151.069 356.617 144.323 358.639 140.469 363.299C133.186 372.096 139.939 386.075 134.869 396.307C139.408 399.291 144.146 399.814 148.686 402.798C150.793 396.448 161.003 390.622 164.779 384.88Z" fill="#FFC329"/>
<path d="M135.017 395.819C134.395 397.445 133.773 399.072 133.158 400.691C132.479 402.459 131.793 404.389 132.288 406.213C132.712 407.783 133.964 409.007 135.35 409.841C137.252 410.979 139.621 411.51 141.714 410.788C144.91 409.685 146.515 406.185 147.767 403.039" stroke="#23295B" stroke-width="1.4" stroke-linecap="round" stroke-linejoin="round"/>
<path d="M132.592 403.703C136.474 405.45 140.342 407.196 144.224 408.943" stroke="#23295B" stroke-width="1.4" stroke-linecap="round" stroke-linejoin="round"/>
<path d="M133.554 398.796C137.768 401.2 142.124 403.35 146.585 405.238" stroke="#23295B" stroke-width="1.4" stroke-linecap="round" stroke-linejoin="round"/>
<path d="M134.812 395.84C138.949 397.997 143.199 399.956 147.533 401.688" stroke="#23295B" stroke-width="1.4" stroke-linecap="round" stroke-linejoin="round"/>
<path d="M138.751 396.017C141.763 390.671 143.786 384.774 144.705 378.707C144.005 378.304 143.093 378.749 142.612 379.4C141.876 380.404 141.834 381.818 142.315 382.964C142.796 384.109 143.729 385.029 144.783 385.7C145.582 386.216 146.508 386.62 147.463 386.612C148.976 386.598 150.277 385.566 151.316 384.47C152.278 383.466 153.19 382.172 152.943 380.807C151.642 380.397 150.461 381.677 149.761 382.858C146.932 387.652 145.645 393.181 144.394 398.605" stroke="#23295B" stroke-width="1.4" stroke-linecap="round" stroke-linejoin="round"/>
<path d="M159.95 364.084C163.868 366.898 165.551 372.456 163.854 376.968" stroke="#23295B" stroke-width="1.4" stroke-linecap="round" stroke-linejoin="round"/>
<path d="M159.038 355.719C160.099 353.725 161.152 351.738 162.213 349.744" stroke="#23295B" stroke-width="1.4" stroke-linecap="round" stroke-linejoin="round"/>
<path d="M168.916 362.854C170.415 361.765 171.992 360.796 173.647 359.947" stroke="#23295B" stroke-width="1.4" stroke-linecap="round" stroke-linejoin="round"/>
<path d="M171.737 366.481C173.434 365.831 175.223 365.456 177.033 365.371" stroke="#23295B" stroke-width="1.4" stroke-linecap="round" stroke-linejoin="round"/>
<path d="M171.023 378.452C172.968 379.011 174.92 379.563 176.864 380.121" stroke="#23295B" stroke-width="1.4" stroke-linecap="round" stroke-linejoin="round"/>
<path d="M145.03 347.976C145.653 349.956 146.275 351.922 146.897 353.902" stroke="#23295B" stroke-width="1.4" stroke-linecap="round" stroke-linejoin="round"/>
<path d="M140.95 349.694C141.714 350.826 142.478 351.957 143.234 353.081" stroke="#23295B" stroke-width="1.4" stroke-linecap="round" stroke-linejoin="round"/>
<path d="M130.075 359.806C132.154 360.867 134.24 361.92 136.312 362.974" stroke="#23295B" stroke-width="1.4" stroke-linecap="round" stroke-linejoin="round"/>
<path d="M127.649 374.068C129.94 373.856 132.267 373.991 134.515 374.471" stroke="#23295B" stroke-width="1.4" stroke-linecap="round" stroke-linejoin="round"/>
</g>
<g clip-path="url(#clip11_20_6015)">
<path d="M188.64 331.47C191.79 330.23 194.93 328.99 198.08 327.74" stroke="#23295B" stroke-width="1.4" stroke-linecap="round" stroke-linejoin="round"/>
<path d="M184.7 326.3C188.27 324.76 191.83 323.23 195.4 321.7" stroke="#23295B" stroke-width="1.4" stroke-linecap="round" stroke-linejoin="round"/>
<g clip-path="url(#clip12_20_6015)">
<path d="M188.64 331.47C191.79 330.23 194.93 328.99 198.08 327.74" stroke="#23295B" stroke-width="1.4" stroke-linecap="round" stroke-linejoin="round"/>
<path d="M184.7 326.3C188.27 324.76 191.83 323.23 195.4 321.7" stroke="#23295B" stroke-width="1.4" stroke-linecap="round" stroke-linejoin="round"/>
</g>
</g>
<g clip-path="url(#clip13_20_6015)">
<path d="M199.7 17.93C203.22 14.36 209.44 13.5 213.37 16.61C215.2 18.06 216.18 21.34 214.13 22.46" stroke="#23295B" stroke-width="1.4" stroke-linecap="round" stroke-linejoin="round"/>
</g>
<g clip-path="url(#clip14_20_6015)">
<path d="M48.0002 19.45C54.9102 16.56 61.7702 13.3 68.8402 10.8C70.1502 14.21 71.4702 17.62 72.7802 21.03C66.0802 23.45 58.7702 26.32 52.0602 28.74C51.1702 25.3 49.5902 22.62 47.9902 19.45H48.0002Z" fill="#23295B"/>
<path d="M63.3399 17.12C61.4999 13.79 59.6599 10.46 57.8199 7.13001C59.0699 5.44001 59.0699 3.11001 57.4899 1.72001C55.9099 0.330012 53.2599 0.380012 51.7399 1.83001C50.2199 3.28001 50.0399 5.93001 51.3599 7.57001C51.8599 8.20001 52.7399 8.87001 53.4099 9.12001C54.0199 9.35001 55.4799 17.16 55.9099 19.79" stroke="#23295B" stroke-width="1.4" stroke-linecap="round" stroke-linejoin="round"/>
</g>
<defs>
<clipPath id="clip0_20_6015">
<rect width="114.4" height="68.47" fill="white" transform="translate(26 43)"/>
</clipPath>
<clipPath id="clip1_20_6015">
<rect width="68.54" height="74.81" fill="white" transform="translate(249 66)"/>
</clipPath>
<clipPath id="clip2_20_6015">
<rect width="46.63" height="58.76" fill="white" transform="translate(52 292)"/>
</clipPath>
<clipPath id="clip3_20_6015">
<rect width="63.23" height="56.3" fill="white" transform="translate(227 330)"/>
</clipPath>
<clipPath id="clip4_20_6015">
<rect width="23.77" height="63.4" fill="white" transform="translate(293 217)"/>
</clipPath>
<clipPath id="clip5_20_6015">
<rect width="15.42" height="10.18" fill="white" transform="translate(280 308)"/>
</clipPath>
<clipPath id="clip6_20_6015">
<rect width="9.04" height="22.57" fill="white" transform="translate(113 13)"/>
</clipPath>
<clipPath id="clip7_20_6015">
<rect width="59.27" height="107.92" fill="white" transform="translate(0 163)"/>
</clipPath>
<clipPath id="clip8_20_6015">
<rect width="15.77" height="15.48" fill="white" transform="translate(76 382)"/>
</clipPath>
<clipPath id="clip9_20_6015">
<rect width="15.77" height="15.48" fill="white" transform="translate(269 13)"/>
</clipPath>
<clipPath id="clip10_20_6015">
<rect width="48.86" height="64.02" fill="white" transform="translate(151.79 337.101) rotate(45)"/>
</clipPath>
<clipPath id="clip11_20_6015">
<rect width="14.78" height="11.17" fill="white" transform="translate(184 321)"/>
</clipPath>
<clipPath id="clip12_20_6015">
<rect width="14.78" height="11.17" fill="white" transform="translate(184 321)"/>
</clipPath>
<clipPath id="clip13_20_6015">
<rect width="16.97" height="9.16" fill="white" transform="translate(199 14)"/>
</clipPath>
<clipPath id="clip14_20_6015">
<rect width="24.78" height="28.75" fill="white" transform="translate(48)"/>
</clipPath>
</defs>
</svg>
