<svg width="50" height="50" viewBox="0 0 50 50" fill="none" xmlns="http://www.w3.org/2000/svg">
<g clip-path="url(#clip0_21_7205)">
<rect width="50" height="50" rx="25" fill="white"/>
<circle cx="25" cy="25" r="25" fill="#DEF4FF"/>
<path d="M13.2605 19.4952C12.4705 27.5902 11.2305 30.5502 10.5605 31.6002C10.3905 31.8602 10.5555 32.2102 10.8605 32.2502L24.5555 34.0452L25.3855 6.13522C25.3855 6.13522 14.7155 4.52022 13.2605 19.4952Z" fill="#441D39"/>
<path d="M40.6855 31.6002C40.0105 30.5502 38.7705 27.5902 37.9855 19.4952C36.5305 4.52024 25.5605 6.12524 25.5605 6.12524L26.6955 34.0402L40.3905 32.2452C40.7005 32.2052 40.8605 31.8602 40.6905 31.5952L40.6855 31.6002Z" fill="#441D39"/>
<path d="M20.7097 32.2598L20.0347 37.9298L30.4747 37.6298L29.7747 32.2598H20.7097Z" fill="#FFC7A4"/>
<path d="M20.3203 35.5297C20.3203 35.5297 27.3453 36.1747 29.8203 33.0947V29.5547L20.9153 30.4097L20.3203 35.5297Z" fill="#F2B594"/>
<path d="M37.5553 20.7846C37.4353 19.5146 36.4003 19.3246 35.8953 19.3096C35.4003 12.6596 30.7153 6.13965 25.3903 6.13965C20.0653 6.13965 15.9853 12.6596 15.4903 19.3096C15.0553 19.3046 13.8453 19.4097 13.7153 20.7897C13.5553 22.4747 14.1203 23.7696 15.1703 24.3296C15.1703 24.3296 15.3953 24.4396 15.9103 24.5296V24.4946C17.2103 29.8246 21.1003 33.6897 25.6953 33.6897C30.2903 33.6897 34.1753 29.8296 35.4803 24.5046C35.9103 24.4196 36.1053 24.3296 36.1053 24.3296C37.1553 23.7696 37.7203 22.4747 37.5603 20.7897L37.5553 20.7846Z" fill="#FFC7A4"/>
<path d="M18.6599 17.9403C20.3499 17.6353 21.8449 17.8753 22.6049 18.0203C22.8349 18.0653 23.0649 17.9553 23.1349 17.7653C23.2149 17.5503 23.0649 17.3303 22.8049 17.2803C21.9399 17.1153 20.3849 16.8653 18.7549 17.4353C18.5049 17.5253 18.0599 17.7703 18.1949 17.9653C18.2699 18.0353 18.4349 17.9753 18.6599 17.9353V17.9403Z" fill="#441D39"/>
<path d="M32.8149 17.9403C31.1249 17.6353 29.6299 17.8753 28.8699 18.0203C28.6399 18.0653 28.4099 17.9553 28.3399 17.7653C28.2599 17.5503 28.4099 17.3303 28.6699 17.2803C29.5349 17.1153 31.0899 16.8653 32.7199 17.4353C32.9699 17.5253 33.4149 17.7703 33.2799 17.9653C33.2049 18.0353 33.0399 17.9753 32.8149 17.9353V17.9403Z" fill="#441D39"/>
<path d="M30.5347 21.4047C30.8688 21.4047 31.1397 20.9346 31.1397 20.3547C31.1397 19.7748 30.8688 19.3047 30.5347 19.3047C30.2006 19.3047 29.9297 19.7748 29.9297 20.3547C29.9297 20.9346 30.2006 21.4047 30.5347 21.4047Z" fill="#441D39"/>
<path d="M21.4605 21.4047C21.7946 21.4047 22.0655 20.9346 22.0655 20.3547C22.0655 19.7748 21.7946 19.3047 21.4605 19.3047C21.1263 19.3047 20.8555 19.7748 20.8555 20.3547C20.8555 20.9346 21.1263 21.4047 21.4605 21.4047Z" fill="#441D39"/>
<path d="M26.3999 25.2898H25.4449C24.9399 25.2898 24.5299 25.1348 24.3699 24.8798C24.2799 24.7398 24.2699 24.5798 24.3399 24.4298C24.5599 23.9648 24.7399 23.5148 24.7399 23.5148C24.7899 23.3848 24.9399 23.3248 25.0649 23.3798C25.1949 23.4298 25.2549 23.5798 25.1999 23.7048C25.1999 23.7048 25.0149 24.1648 24.7899 24.6448C24.8149 24.6598 25.0199 24.7898 25.4449 24.7898H26.3999C26.5399 24.7898 26.6499 24.8998 26.6499 25.0398C26.6499 25.1798 26.5399 25.2898 26.3999 25.2898Z" fill="#EDA07E"/>
<path d="M25.4852 28.435C24.3202 28.435 23.4352 28.275 23.3702 28.26C23.2352 28.235 23.1452 28.105 23.1702 27.97C23.1952 27.835 23.3302 27.745 23.4602 27.77C23.4902 27.77 26.2752 28.285 28.4552 27.47C28.5852 27.42 28.7302 27.485 28.7752 27.615C28.8252 27.745 28.7602 27.89 28.6302 27.935C27.5852 28.325 26.4402 28.435 25.4802 28.435H25.4852Z" fill="#EDA07E"/>
<path d="M31.0345 23.2648C31.9983 23.2648 32.7796 23.0858 32.7796 22.8648C32.7796 22.6439 31.9983 22.4648 31.0345 22.4648C30.0708 22.4648 29.2896 22.6439 29.2896 22.8648C29.2896 23.0858 30.0708 23.2648 31.0345 23.2648Z" fill="#EAA281"/>
<path d="M20.8544 23.2648C21.8181 23.2648 22.5994 23.0858 22.5994 22.8648C22.5994 22.6439 21.8181 22.4648 20.8544 22.4648C19.8906 22.4648 19.1094 22.6439 19.1094 22.8648C19.1094 23.0858 19.8906 23.2648 20.8544 23.2648Z" fill="#EAA281"/>
<path d="M15.8945 16.1146L15.3945 16.0846C15.8845 7.7546 23.6495 6.5696 23.7295 6.5596L23.7995 7.0546C23.7995 7.0546 21.9095 7.3346 20.0095 8.5896C17.4745 10.2646 16.0945 12.7946 15.8945 16.1146Z" fill="#30132B"/>
<path d="M25.5605 6.12991V10.4649C25.5605 10.4649 32.9355 9.37991 35.9455 19.3099C35.9455 19.3099 37.9905 5.94991 25.5605 6.13491V6.12991Z" fill="#441D39"/>
<path d="M25.3846 6.13459V10.4696C25.3846 10.4696 18.4496 9.56459 15.4396 19.4946C15.4396 19.4946 12.9546 5.95459 25.3846 6.13459Z" fill="#441D39"/>
<path d="M44.895 43.9003C41.51 42.7603 33.99 38.9803 31.35 37.6303C31.35 37.6153 31.35 37.6003 31.34 37.5853L30.76 35.7203C30.68 35.4603 30.44 35.2803 30.165 35.2803H20.14C19.84 35.2803 19.585 35.4903 19.53 35.7853L18.8 37.5603C18.78 37.6553 18.785 37.7453 18.805 37.8303C15.885 39.3153 8.875 42.8153 5.64 43.9053C1.5 45.3003 1.5 52.3703 1.5 52.3703H49.04C49.04 52.3703 49.04 45.3003 44.9 43.9053L44.895 43.9003Z" fill="#4598C4"/>
<path d="M15.6046 26.4799C15.4596 26.4799 15.3946 26.4799 15.3696 26.2099H15.3596C15.3596 26.2099 15.3596 26.1499 15.3596 26.0799C15.3496 25.8499 15.3496 25.4949 15.3496 24.9299C15.3496 24.3649 15.3496 24.0099 15.3596 23.7799C15.3596 23.7099 15.3596 23.6649 15.3596 23.6499H15.3696C15.3996 23.3799 15.4596 23.3799 15.6046 23.3799C15.7496 23.3799 15.8146 23.3799 15.8396 23.6499H15.8496C15.8496 23.6499 15.8496 23.7099 15.8496 23.7799C15.8596 24.0099 15.8596 24.3649 15.8596 24.9299C15.8596 25.4949 15.8596 25.8499 15.8496 26.0799C15.8496 26.1499 15.8496 26.1949 15.8496 26.2099H15.8396C15.8096 26.4799 15.7496 26.4799 15.6046 26.4799Z" fill="#FFA33A"/>
<path d="M36.1139 26.4799C35.9689 26.4799 35.9039 26.4799 35.8789 26.2099H35.8689C35.8689 26.2099 35.8689 26.1499 35.8689 26.0799C35.8589 25.8499 35.8589 25.4949 35.8589 24.9299C35.8589 24.3649 35.8589 24.0099 35.8689 23.7799C35.8689 23.7099 35.8689 23.6649 35.8689 23.6499H35.8789C35.9089 23.3799 35.9689 23.3799 36.1139 23.3799C36.2589 23.3799 36.3239 23.3799 36.3489 23.6499H36.3589C36.3589 23.6499 36.3589 23.7099 36.3589 23.7799C36.3689 24.0099 36.3689 24.3649 36.3689 24.9299C36.3689 25.4949 36.3689 25.8499 36.3589 26.0799C36.3589 26.1499 36.3589 26.1949 36.3589 26.2099H36.3489C36.3189 26.4799 36.2589 26.4799 36.1139 26.4799Z" fill="#FFA33A"/>
<path d="M20.8198 39.0655C20.8198 39.0655 20.7898 39.0655 20.7798 39.0655C20.6448 39.0405 20.5498 38.9155 20.5748 38.7755L20.9548 36.5555C20.9798 36.4205 21.1098 36.3305 21.2448 36.3505C21.3798 36.3755 21.4748 36.5005 21.4498 36.6405L21.0698 38.8605C21.0498 38.9805 20.9448 39.0705 20.8248 39.0705L20.8198 39.0655Z" fill="#2579AD"/>
<path d="M29.2896 39.0646C29.1696 39.0646 29.0646 38.9796 29.0446 38.8546L28.6646 36.6346C28.6396 36.4996 28.7346 36.3696 28.8696 36.3446C29.0046 36.3246 29.1346 36.4146 29.1596 36.5496L29.5396 38.7696C29.5646 38.9046 29.4696 39.0346 29.3346 39.0596C29.3196 39.0596 29.3046 39.0596 29.2946 39.0596L29.2896 39.0646Z" fill="#2579AD"/>
<path d="M25.2754 39.2754C25.1354 39.2754 25.0254 39.1654 25.0254 39.0254V36.7754C25.0254 36.6354 25.1354 36.5254 25.2754 36.5254C25.4154 36.5254 25.5254 36.6354 25.5254 36.7754V39.0254C25.5254 39.1654 25.4154 39.2754 25.2754 39.2754Z" fill="#2579AD"/>
</g>
<defs>
<clipPath id="clip0_21_7205">
<rect width="50" height="50" rx="25" fill="white"/>
</clipPath>
</defs>
</svg>
